# AST/ASF file generated using VICON BodyLanguage
# -----------------------------------------------
:version 1.10
:name VICON
:units
  mass 1.0
  length 0.45
  angle deg
:documentation
   .ast/.asf automatically generated from VICON data using
   VICON BodyBuilder and BodyLanguage model FoxedUp or BRILLIANT.MOD
:root
   order TX TY TZ RX RY RZ
   axis XYZ
   position 0 0 0  
   orientation 0 0 0 
:bonedata
  begin
     id 1 
     name lhipjoint
     direction 0.558404 -0.748506 0.357664 
     length 2.4234 
     axis 0 0 0  XYZ
  end
  begin
     id 2 
     name lfemur
     direction 0.34202 -0.939693 0  
     length 7.14567  
     axis 0 0 20  XYZ
    dof rx ry rz
    limits (-160.0 20.0)
           (-70.0 70.0)
           (-60.0 70.0)
  end
  begin
     id 3 
     name ltibia
     direction 0.34202 -0.939693 0   
     length 8.13956   
     axis 0 0 20   XYZ
    dof rx
    limits (-10.0 170.0)
  end
  begin
     id 4 
     name lfoot
     direction 0.0791314 -0.217412 0.972867   
     length 2.00134   
     axis -90 7.62852e-016 20   XYZ
    dof rx rz
    limits (-45.0 90.0)
           (-70.0 20.0)
  end
  begin
     id 5 
     name ltoes
     direction 1.53547e-011 -4.21922e-011 1   
     length 1.00735   
     axis -90 7.62852e-016 20   XYZ
    dof rx
    limits (-90.0 20.0)
  end
  begin
     id 6 
     name rhipjoint
     direction -0.496392 -0.78327 0.374276   
     length 2.31584  
     axis 0 0 0  XYZ 
  end
  begin
     id 7 
     name rfemur
     direction -0.34202 -0.939693 0   
     length 7.47417   
     axis 0 0 -20   XYZ
    dof rx ry rz
    limits (-160.0 20.0)
           (-70.0 70.0)
           (-70.0 60.0)
  end
  begin
     id 8 
     name rtibia
     direction -0.34202 -0.939693 0   
     length 7.69071   
     axis 0 0 -20   XYZ
    dof rx
    limits (-10.0 170.0)
 end
 begin
     id 9 
     name rfoot
     direction -0.103069 -0.28318 0.953512   
     length 2.16135  
     axis -90 -7.62852e-016 -20   XYZ
    dof rx rz
    limits (-45.0 90.0)
           (-20.0 70.0)
  end
  begin
     id 10 
     name rtoes
     direction -1.53581e-011 -4.21904e-011 1   
     length 1.07867   
     axis -90 -7.62852e-016 -20   XYZ
    dof rx
    limits (-90.0 20.0)
  end
  begin
     id 11 
     name lowerback
     direction -0.0258961 0.994776 -0.0987407   
     length 2.19412   
     axis 0 0 0   XYZ
    dof rx ry rz
    limits (-20.0 45.0)
           (-30.0 30.0)
           (-30.0 30.0)
  end
  begin
     id 12 
     name upperback
     direction 0.0402454 0.999185 0.00320666   
     length 2.18445   
     axis 0 0 0   XYZ
    dof rx ry rz
    limits (-20.0 45.0)
           (-30.0 30.0)
           (-30.0 30.0)
  end
  begin
     id 13 
     name thorax
     direction 0.0519376 0.997415 0.0496558   
     length 2.21487   
     axis 0 0 0   XYZ
    dof rx ry rz
    limits (-20.0 45.0)
           (-30.0 30.0)
           (-30.0 30.0)
  end
  begin
     id 14 
     name lowerneck
     direction -0.0921276 0.983211 0.157506   
     length 1.61201   
     axis 0 0 0   XYZ
    dof rx ry rz
    limits (-20.0 45.0)
           (-30.0 30.0)
           (-30.0 30.0)
  end
  begin
     id 15 
     name upperneck
     direction 0.0820814 0.98162 -0.172292   
     length 1.65275   
     axis 0 0 0   XYZ
    dof rx ry rz
    limits (-20.0 45.0)
           (-30.0 30.0)
           (-30.0 30.0)
  end
  begin
     id 16
     name head
     direction 0.0336554 0.996413 -0.0776455  
     length 1.66415  
     axis 0 0 0   XYZ
    dof rx ry rz
    limits (-20.0 45.0)
           (-30.0 30.0)
           (-30.0 30.0)
  end
  begin
     id 17 
     name lclavicle
     direction 0.94696 0.284418 -0.149576  
     length 3.41447  
     axis 0 0 0   XYZ
    dof ry rz
    limits (-20.0 10.0)
           (0.0 20.0)
  end
  begin
     id 18 
     name lhumerus
     direction 1 -0.000130264 -9.81312e-005   
     length 5.19964   
     axis 180 -30 -90   XYZ
    dof rx ry rz
    limits (-60.0 90.0)
           (-90.0 90.0)
           (-90.0 90.0)
  end
  begin
     id 19
     name lradius
     direction 1 -4.48961e-011 1.43854e-026   
     length 3.32189   
     axis 180 -30 -90   XYZ
    dof rx
    limits (-10.0 170.0)
  end
  begin
     id 20
     name lwrist
     direction 1 -4.48958e-011 3.1502e-026   
     length 1.66095   
     axis -1.97692e-014 90 90   XYZ
    dof ry
    limits (-180.0 0.0)
 end
  begin
     id 21 
     name lhand
     direction 1 -4.48927e-011 6.3004e-026   
     length 0.645616   
     axis -4.02019e-014 90 90   XYZ
    dof rx rz
    limits (-90.0 90.0)
           (-45.0 45.0)
  end
  begin
     id 22 
     name lfingers
     direction 1 -4.4904e-011 1.26008e-025   
     length 0.520512   
     axis -8.04039e-014 90 90   XYZ
    dof rx
    limits (0.0 90.0)
  end
  begin
     id 23
     name lthumb
     direction 0.707107 -6.34947e-011 0.707107   
     length 0.747354   
     axis -90 45 2.85299e-015   XYZ
    dof rx rz
    limits (-45.0 45.0)
           (-45.0 45.0)
  end
  begin
     id 24 
     name rclavicle
     direction -0.909391 0.383475 -0.161107   
     length 3.25176  
     axis 0 0 0   XYZ 
    dof ry rz
    limits (-10.0 20.0)
           (-20.0 0.0)
  end
  begin
     id 25 
     name rhumerus
     direction -1 -4.48965e-011 -1.81384e-027  
     length 5.6595   
     axis 180 30 90   XYZ
    dof rx ry rz
    limits (-90.0 60.0)
           (-90.0 90.0)
           (-90.0 90.0)
  end
  begin
     id 26 
     name rradius
     direction -1 -4.48996e-011 -8.09397e-027   
     length 3.37604   
     axis 180 30 90   XYZ
    dof rx
    limits (-10.0 170.0)
  end
  begin
     id 27 
     name rwrist
     direction -1 -4.48927e-011 -1.56669e-026   
     length 1.68802   
     axis 1.21142e-014 -90 -90   XYZ
    dof ry
    limits (-180.0 0.0)
  end
  begin
     id 28
     name rhand
     direction -1 -4.48912e-011 -3.13339e-026   
     length 0.824702   
     axis 1.99937e-014 -90 -90   XYZ
    dof rx rz
    limits (-90.0 90.0)
           (-45.0 45.0)
  end
  begin
     id 29
     name rfingers
     direction -1 -4.49011e-011 -6.26677e-026   
     length 0.664896   
     axis 3.99874e-014 -90 -90   XYZ
    dof rx
    limits (0.0 90.0)
  end
  begin
     id 30
     name rthumb
     direction -0.707107 -6.34931e-011 0.707107   
     length 0.954662   
     axis -90 -45 -2.85299e-015   XYZ
    dof rx rz
    limits (-45.0 45.0)
           (-45.0 45.0)
  end
:hierarchy
  begin
    root lhipjoint rhipjoint lowerback
    lhipjoint lfemur
    lfemur ltibia
    ltibia lfoot
    lfoot ltoes
    rhipjoint rfemur
    rfemur rtibia
    rtibia rfoot
    rfoot rtoes
    lowerback upperback
    upperback thorax
    thorax lowerneck lclavicle rclavicle
    lowerneck upperneck
    upperneck head
    lclavicle lhumerus
    lhumerus lradius
    lradius lwrist
    lwrist lhand lthumb
    lhand lfingers
    rclavicle rhumerus
    rhumerus rradius
    rradius rwrist
    rwrist rhand rthumb
    rhand rfingers
  end

#!OML:ASF F:\VICON\USERDATA\INSTALL\rory3\rory3.ASF
:FULLY-SPECIFIED
:DEGREES
93
root 10.3834 17.765 -18.2466 7.18666 -39.078 -6.85661
lowerback 3.8951 -0.491497 -2.42636
upperback -1.77114 -0.658674 4.11484
thorax -3.94841 -0.216639 5.70089
lowerneck -12.8659 -5.97342 -14.6797
upperneck 19.5578 -7.76916 11.7092
head 9.30941 -3.63096 5.54904
rclavicle -2.90723e-015 -2.18663e-014
rhumerus -39.3302 -20.7451 -67.6192
rradius 31.3955
rwrist -15.7319
rhand -10.8235 16.7125
rfingers 7.12502
rthumb 15.1905 -12.7099
lclavicle -2.90723e-015 -2.18663e-014
lhumerus -33.8133 25.4342 73.7866
lradius 21.5942
lwrist -16.3445
lhand -0.373522 25.0771
lfingers 7.12502
lthumb 25.2326 53.4288
rfemur -15.6222 6.1265 22.2534
rtibia 38.0943
rfoot -20.2317 -10.1276
rtoes 12.4047
lfemur -12.6946 0.455793 -17.6286
ltibia 37.5211
lfoot -24.4428 11.7289
ltoes 3.55181
94
root 10.3906 17.7673 -18.2527 7.47981 -39.1395 -7.1827
lowerback 3.92693 -0.453917 -2.17423
upperback -1.80799 -0.591601 4.20864
thorax -4.01391 -0.186969 5.65245
lowerneck -13.0214 -5.71497 -14.3754
upperneck 19.7126 -7.41611 11.508
head 9.31732 -3.45891 5.4754
rclavicle -2.55066e-014 1.07344e-014
rhumerus -39.3309 -20.8346 -67.529
rradius 31.445
rwrist -15.604
rhand -10.6563 16.7735
rfingers 7.12502
rthumb 15.3515 -12.6366
lclavicle -2.55066e-014 1.07344e-014
lhumerus -33.2188 22.5386 75.8533
lradius 23.5118
lwrist -12.3703
lhand 0.511489 33.6445
lfingers 7.12502
lthumb 26.0802 61.874
rfemur -15.7639 6.2465 22.5034
rtibia 38.105
rfoot -20.3091 -10.0363
rtoes 13.3728
lfemur -12.8177 0.311059 -17.4
ltibia 37.555
lfoot -24.3959 12.07
ltoes 3.45683
95
root 10.3991 17.7684 -18.2595 7.56582 -39.1056 -7.23724
lowerback 3.91418 -0.437588 -1.99152
upperback -1.76696 -0.561946 4.15857
thorax -3.9687 -0.179349 5.4915
lowerneck -13.1154 -5.50379 -14.1741
upperneck 19.7659 -7.17308 11.5883
head 9.31119 -3.32024 5.50441
rclavicle -9.21243e-015 -1.31198e-014
rhumerus -39.2934 -21.0728 -67.5394
rradius 31.5569
rwrist -15.4689
rhand -10.6002 16.7155
rfingers 7.12502
rthumb 15.4056 -12.6904
lclavicle -9.21243e-015 -1.31198e-014
lhumerus -32.9969 22.3978 75.9218
lradius 23.6957
lwrist -11.7752
lhand 0.978817 34.1827
lfingers 7.12502
lthumb 26.5276 62.3453
rfemur -15.8695 6.20088 22.5366
rtibia 38.1043
rfoot -20.2842 -9.99465
rtoes 13.3754
lfemur -12.9607 0.198665 -17.3548
ltibia 37.58
lfoot -24.3373 12.0842
ltoes 4.19253
96
root 10.4077 17.7675 -18.2582 7.50126 -39.0928 -7.16575
lowerback 3.906 -0.454257 -1.86578
upperback -1.72726 -0.579769 4.10433
thorax -3.9219 -0.193811 5.36242
lowerneck -13.0954 -5.21398 -13.9714
upperneck 19.8356 -6.8163 11.5776
head 9.2695 -3.14103 5.51696
rclavicle -1.88348e-014 1.70955e-014
rhumerus -39.3261 -20.9319 -67.6208
rradius 31.7824
rwrist -15.652
rhand -10.6532 16.6215
rfingers 7.12502
rthumb 15.3545 -12.7884
lclavicle -1.88348e-014 1.70955e-014
lhumerus -32.9048 22.1788 76.0654
lradius 23.9631
lwrist -11.4022
lhand 1.24925 34.8357
lfingers 7.12502
lthumb 26.7864 62.959
rfemur -15.8787 6.04755 22.4434
rtibia 38.143
rfoot -20.2145 -9.93892
rtoes 12.7107
lfemur -12.9527 -0.0249052 -17.4621
ltibia 37.5595
lfoot -24.3868 12.1656
ltoes 4.78107
97
root 10.4144 17.7673 -18.2546 7.27554 -39.243 -6.84526
lowerback 3.93596 -0.438859 -2.09367
upperback -1.7097 -0.571792 4.10345
thorax -3.91992 -0.184031 5.49167
lowerneck -13.124 -4.88291 -13.723
upperneck 19.8442 -6.34687 11.3468
head 9.19205 -2.92382 5.45372
rclavicle 3.18055e-014 -9.14409e-015
rhumerus -39.3012 -20.6225 -67.6111
rradius 31.9417
rwrist -15.8278
rhand -10.7333 16.6424
rfingers 7.12502
rthumb 15.2774 -12.7734
lclavicle 3.18055e-014 -9.14409e-015
lhumerus -32.9247 22.1954 76.2461
lradius 24.0803
lwrist -11.2979
lhand 1.25755 35.0855
lfingers 7.12502
lthumb 26.7943 63.2076
rfemur -15.913 5.98267 22.1101
rtibia 38.2424
rfoot -20.2468 -9.79085
rtoes 12.7187
lfemur -12.8536 -0.126652 -17.8248
ltibia 37.4771
lfoot -24.4902 12.3431
ltoes 4.76215
98
root 10.4208 17.7674 -18.2556 7.03527 -39.4737 -6.43427
lowerback 3.98001 -0.400541 -2.46546
upperback -1.68135 -0.541705 4.08703
thorax -3.91656 -0.159746 5.68561
lowerneck -13.6992 -4.57551 -13.3134
upperneck 20.2116 -5.91556 11.1555
head 9.34442 -2.69525 5.37742
rclavicle -1.57934e-013 1.94809e-014
rhumerus -39.137 -20.6536 -67.5049
rradius 31.9024
rwrist -15.7319
rhand -10.6442 16.7632
rfingers 7.12502
rthumb 15.3632 -12.646
lclavicle -1.57934e-013 1.94809e-014
lhumerus -32.9379 22.4748 76.2938
lradius 24.0758
lwrist -11.5188
lhand 1.2731 34.794
lfingers 7.12502
lthumb 26.8092 62.9138
rfemur -16.0299 6.05934 21.697
rtibia 38.3603
rfoot -20.2374 -9.62635
rtoes 12.6103
lfemur -12.8103 -0.0790094 -18.2461
ltibia 37.3847
lfoot -24.5187 12.462
ltoes 5.01592
99
root 10.4279 17.7674 -18.2613 6.9383 -39.6667 -6.17114
lowerback 4.07345 -0.40034 -2.7271
upperback -1.72354 -0.555704 4.08925
thorax -4.01034 -0.15655 5.8418
lowerneck -14.7591 -4.17385 -12.7985
upperneck 21.1031 -5.38735 11.0594
head 9.76123 -2.39597 5.34682
rclavicle 1.74931e-014 -2.06736e-014
rhumerus -39.0671 -20.6509 -67.3934
rradius 31.9002
rwrist -15.555
rhand -10.4142 16.8714
rfingers 7.12502
rthumb 15.5847 -12.5207
lclavicle 1.74931e-014 -2.06736e-014
lhumerus -33.0553 22.6866 76.2474
lradius 23.9573
lwrist -12.0059
lhand 1.0292 33.9596
lfingers 7.12502
lthumb 26.5758 62.1149
rfemur -16.2189 6.16582 21.4261
rtibia 38.4763
rfoot -20.1583 -9.52395
rtoes 12.4092
lfemur -12.8688 -0.0392509 -18.5137
ltibia 37.3222
lfoot -24.4889 12.5753
ltoes 5.46133
100
root 10.4351 17.7682 -18.268 7.09706 -39.8485 -6.28538
lowerback 4.22417 -0.417274 -2.75924
upperback -1.8144 -0.576348 4.22085
thorax -4.18736 -0.158352 6.00658
lowerneck -15.344 -3.71164 -12.5161
upperneck 21.6602 -4.75931 10.9902
head 9.97128 -2.07799 5.37615
rclavicle -7.30285e-014 -2.78299e-015
rhumerus -39.0599 -20.3847 -67.3282
rradius 32.0034
rwrist -15.4719
rhand -10.2394 16.9894
rfingers 7.12502
rthumb 15.7531 -12.3895
lclavicle -7.30285e-014 -2.78299e-015
lhumerus -33.2236 22.7464 76.2858
lradius 23.8276
lwrist -12.3515
lhand 0.635608 33.2198
lfingers 7.12502
lthumb 26.199 61.4317
rfemur -16.4297 6.32857 21.4914
rtibia 38.5835
rfoot -20.0736 -9.5478
rtoes 12.2917
lfemur -12.9728 -0.133182 -18.4679
ltibia 37.2964
lfoot -24.4985 12.8303
ltoes 5.95707
101
root 10.4426 17.7675 -18.2723 7.24546 -39.9924 -6.47821
lowerback 4.34667 -0.399602 -2.68541
upperback -1.78611 -0.547092 4.31531
thorax -4.23098 -0.144279 6.06446
lowerneck -15.5415 -3.40465 -12.2552
upperneck 21.8156 -4.3289 10.7901
head 9.99344 -1.87419 5.32139
rclavicle 2.88735e-014 1.55052e-014
rhumerus -38.9087 -20.356 -67.353
rradius 32.0827
rwrist -15.4231
rhand -10.2275 16.9762
rfingers 7.12502
rthumb 15.7646 -12.4018
lclavicle 2.88735e-014 1.55052e-014
lhumerus -33.1327 22.7168 76.4189
lradius 23.8452
lwrist -12.2899
lhand 0.561269 33.2274
lfingers 7.12502
lthumb 26.1279 61.4498
rfemur -16.5502 6.47643 21.6301
rtibia 38.6796
rfoot -20.0012 -9.6035
rtoes 11.736
lfemur -12.9986 -0.0647754 -18.349
ltibia 37.2993
lfoot -24.4598 13.0175
ltoes 5.28813
102
root 10.4497 17.7681 -18.2761 7.19731 -40.0793 -6.34718
lowerback 4.33729 -0.339136 -2.72007
upperback -1.72227 -0.471212 4.24208
thorax -4.16854 -0.108968 5.99914
lowerneck -15.5044 -3.19227 -12.0065
upperneck 21.8201 -4.06005 10.6404
head 9.94227 -1.74577 5.25956
rclavicle 4.06018e-014 -5.56597e-015
rhumerus -38.8676 -20.4654 -67.4214
rradius 32.2766
rwrist -15.4552
rhand -10.3146 16.8452
rfingers 7.12502
rthumb 15.6807 -12.5394
lclavicle 4.06018e-014 -5.56597e-015
lhumerus -32.8753 22.3665 76.6425
lradius 23.8975
lwrist -11.8774
lhand 0.665468 33.6067
lfingers 7.12502
lthumb 26.2276 61.8144
rfemur -16.6795 6.47778 21.4819
rtibia 38.7803
rfoot -19.9858 -9.53089
rtoes 11.4541
lfemur -13.0375 0.270258 -18.4713
ltibia 37.3057
lfoot -24.3663 12.9119
ltoes 4.32417
103
root 10.4583 17.7705 -18.2817 7.2155 -40.1962 -6.24044
lowerback 4.34558 -0.315237 -2.78833
upperback -1.76152 -0.442795 4.23431
thorax -4.21757 -0.0908832 6.02891
lowerneck -15.3307 -2.86074 -11.8771
upperneck 21.8346 -3.63279 10.5866
head 9.85276 -1.54752 5.27423
rclavicle 3.53216e-014 0
rhumerus -38.9568 -20.1004 -67.5543
rradius 32.61
rwrist -15.7363
rhand -10.568 16.7104
rfingers 7.12502
rthumb 15.4366 -12.6932
lclavicle 3.53216e-014 0
lhumerus -32.9167 22.2849 76.7362
lradius 24.0159
lwrist -11.8189
lhand 0.840928 33.717
lfingers 7.12502
lthumb 26.3956 61.8996
rfemur -16.898 6.50208 21.344
rtibia 38.8977
rfoot -19.9407 -9.46162
rtoes 11.3498
lfemur -13.1809 0.468338 -18.5721
ltibia 37.3065
lfoot -24.3404 12.7766
ltoes 5.14279
104
root 10.4694 17.7709 -18.2906 7.26211 -40.3052 -6.23263
lowerback 4.44769 -0.31454 -2.81633
upperback -1.75791 -0.443438 4.26948
thorax -4.27151 -0.0886751 6.08444
lowerneck -15.3161 -2.51831 -11.7001
upperneck 21.8538 -3.18067 10.5221
head 9.7921 -1.33013 5.27955
rclavicle 2.50966e-015 1.11319e-014
rhumerus -38.8934 -19.7557 -67.7131
rradius 32.8583
rwrist -15.8438
rhand -10.8291 16.6337
rfingers 7.12502
rthumb 15.1851 -12.7891
lclavicle 2.50966e-015 1.11319e-014
lhumerus -32.8728 22.4153 76.7848
lradius 24.0726
lwrist -12.0563
lhand 0.915431 33.4514
lfingers 7.12502
lthumb 26.4669 61.6232
rfemur -17.0947 6.54997 21.3108
rtibia 39.0253
rfoot -19.8101 -9.50582
rtoes 10.4788
lfemur -13.3007 0.550534 -18.5876
ltibia 37.2971
lfoot -24.3209 12.7239
ltoes 5.96443
